<svg width="219" height="207" xmlns="http://www.w3.org/2000/svg" xmlns:xlink="http://www.w3.org/1999/xlink" xml:space="preserve" overflow="hidden"><g transform="translate(-530 -256)"><path d="M153.434 149.294 127.127 133.27 117.779 135.406C96.6805 140.213 76.9171 136.741 66.1006 126.326L60.0915 120.584 60.0915 107.096 60.0915 93.4756 54.0823 89.8701C50.8774 87.7335 45.4024 84.5287 42.064 82.5256L35.9213 78.7866 38.7256 73.4451C40.1945 70.5073 42.1976 68.1037 43.1323 68.1037 43.9335 68.1037 49.0079 70.7744 54.0823 73.8457L63.4299 79.4543 63.8305 90.5378C64.0976 96.547 64.4982 101.488 64.8988 101.488 65.1659 101.488 67.703 100.019 70.5073 98.2829 78.9201 92.6744 89.7366 90.4043 103.357 91.072 115.776 91.8732 129.13 95.4787 133.537 99.4848 136.875 102.423 137.81 101.888 137.276 97.2146 136.875 93.2085 136.341 92.8079 126.86 89.7366 121.385 88.0006 100.286 81.3238 80.122 74.7805L43.3994 63.0293 43.5329 58.222C43.8 51.011 45.4024 50.0762 52.8805 52.6134 60.8927 55.2841 64.6317 55.2841 66.9018 52.6134 72.2433 46.2037 88.1341 42.1976 105.761 42.9988 116.711 43.3994 119.649 44.0671 127.26 47.8061 133.136 50.7439 137.009 53.6817 138.745 56.6195 142.083 61.8274 142.35 66.7683 139.546 66.7683 138.477 66.7683 137.543 65.5665 137.543 64.2311 137.543 62.7622 136.074 59.8244 134.204 57.6878 127.394 49.5421 108.298 44.7348 92.2738 46.8713 83.3268 48.2067 69.439 53.6817 69.439 55.9518 69.439 57.5543 75.3146 59.5573 147.959 81.3238 182.01 91.4726 210.053 100.152 210.587 100.553 211.522 101.621 208.451 113.239 206.982 114.174 206.448 114.574 194.296 111.102 180.141 106.696 165.852 102.155 151.698 97.7488 148.626 96.6805 145.555 95.7457 142.751 95.3451 142.35 95.8793 142.083 96.4134 141.549 103.09 141.415 110.835L140.881 124.723 164.517 138.878C177.47 146.623 188.42 153.3 188.954 153.834 190.423 155.303 184.013 165.585 181.743 165.452 180.541 165.452 167.855 158.107 153.434 149.294ZM183.479 157.974C184.013 156.772 183.88 155.437 183.346 154.902 182.812 154.368 172.262 148.092 159.977 141.015 139.145 128.863 133.804 126.726 132.602 130.332 132.201 131.667 178.271 160.244 181.076 160.244 182.01 160.244 183.079 159.176 183.479 157.974ZM122.052 130.065C137.409 124.189 142.083 113.773 132.869 105.627 116.577 91.4726 83.3268 91.8732 67.8366 106.562 58.6226 115.109 67.703 127.394 86.3982 132.201 94.1433 134.071 114.441 132.869 122.052 130.065ZM204.845 104.159C204.177 103.491 192.56 99.6183 178.939 95.4787 165.318 91.339 131.133 80.6561 102.957 71.9762 74.7805 63.1628 50.7439 56.0854 49.6756 56.3524 48.4738 56.6195 47.4055 57.4207 47.1384 58.3555 46.7378 59.2902 54.2159 62.3616 67.703 66.6348 87.0659 72.7774 185.883 103.624 198.302 107.497 202.842 108.966 203.777 108.832 204.845 107.23 205.379 106.162 205.379 104.693 204.845 104.159ZM59.8244 84.5287C59.4238 81.9915 45.536 73.1781 43.8 74.2463 41.2628 75.8488 43.1323 78.386 49.8092 82.3921 57.8213 87.1994 60.4921 87.7335 59.8244 84.5287Z" fill="#F2AA84" transform="matrix(1 0 0 -1 530 462.991)"/><path d="M91.2055 123.521C77.1842 117.512 83.3268 104.159 100.152 104.159 112.438 104.159 120.049 109.634 118.18 117.112 116.577 123.788 100.687 127.661 91.2055 123.521ZM110.969 118.714C114.441 116.978 114.174 112.571 110.568 110.568 106.829 108.565 94.6774 108.699 90.8049 110.835 86.3982 113.105 87.8671 117.779 93.4756 119.782 98.4165 121.518 106.696 120.984 110.969 118.714Z" fill="#F2AA84" transform="matrix(1 0 0 -1 530 462.991)"/></g></svg>